<?xml version="1.0" encoding="UTF-8" standalone="no"?>
<svg
   xmlns:dc="http://purl.org/dc/elements/1.1/"
   xmlns:cc="http://creativecommons.org/ns#"
   xmlns:rdf="http://www.w3.org/1999/02/22-rdf-syntax-ns#"
   xmlns:svg="http://www.w3.org/2000/svg"
   xmlns="http://www.w3.org/2000/svg"
   id="svg4540"
   version="1.1"
   fill="none"
   viewBox="0 0 24 24"
   height="24"
   width="24">
  <metadata
     id="metadata4546">
    <rdf:RDF>
      <cc:Work
         rdf:about="">
        <dc:format>image/svg+xml</dc:format>
        <dc:type
           rdf:resource="http://purl.org/dc/dcmitype/StillImage" />
        <dc:title></dc:title>
      </cc:Work>
    </rdf:RDF>
  </metadata>
  <defs
     id="defs4544" />
  <path
     id="path4477"
     d="M 1.9977928,4.8684071 C 1.9977928,3.2929385 3.277261,2.01577 4.8555663,2.01577 H 19.144434 c 1.578348,0 2.857773,1.2771685 2.857773,2.8526371 V 19.131593 c 0,1.575512 -1.279425,2.852637 -2.857773,2.852637 H 4.8555663 c -1.5783053,0 -2.8577734,-1.277125 -2.8577734,-2.852637 z M 19.989367,4.1493154 H 3.9567018 V 20.102366 H 19.989367 Z"
     style="fill:#0d0d0d;stroke-width:1.42760229" />
  <path
     id="path5921-7"
     d="m 16.664414,8.2525959 c 0.4127,0.36692 0.4499,0.99899 0.083,1.4118104 l -5.333301,6.0000007 c -0.1898,0.2135 -0.4618,0.3356 -0.7474,0.3356 -0.2857,0 -0.5577,-0.1221 -0.7474404,-0.3356 l -2.6666696,-3 c -0.36692,-0.4128 -0.32974,-1.0449 0.08305,-1.4118 0.41278,-0.3669 1.04485,-0.3297 1.41177,0.083 l 1.91929,2.1592 4.585901,-5.159161 c 0.3669,-0.41279 0.999,-0.4499701 1.4118,-0.08305 z"
     style="fill:#000000" />
</svg>
