<svg width="24" height="24" viewBox="0 0 24 24" fill="none" xmlns="http://www.w3.org/2000/svg">
<path fill-rule="evenodd" clip-rule="evenodd" d="M5 7.76618C5 6.21159 6.69594 5.25137 8.02899 6.0512L15.0853 10.285C16.38 11.0618 16.38 12.9382 15.0853 13.715L8.02899 17.9488C6.69595 18.7486 5 17.7884 5 16.2338V7.76618ZM14.0563 12L7 7.76618V16.2338L14.0563 12Z" fill="#0D0D0D"/>
<path fill-rule="evenodd" clip-rule="evenodd" d="M18 5.99999C18.5523 5.99999 19 6.44771 19 6.99999V17C19 17.5523 18.5523 18 18 18C17.4477 18 17 17.5523 17 17V6.99999C17 6.44771 17.4477 5.99999 18 5.99999Z" fill="#0D0D0D"/>
</svg>
