<svg width="24" height="24" viewBox="0 0 24 24" fill="none" xmlns="http://www.w3.org/2000/svg">
<path fill-rule="evenodd" clip-rule="evenodd" d="M19 7.76618C19 6.21159 17.3041 5.25137 15.971 6.0512L8.91466 10.285C7.61998 11.0618 7.61998 12.9382 8.91466 13.715L15.971 17.9488C17.3041 18.7486 19 17.7884 19 16.2338V7.76618ZM9.94365 12L17 7.76618V16.2338L9.94365 12Z" fill="#0D0D0D"/>
<path fill-rule="evenodd" clip-rule="evenodd" d="M6 5.99999C6.55228 5.99999 7 6.44771 7 6.99999V17C7 17.5523 6.55228 18 6 18C5.44772 18 5 17.5523 5 17V6.99999C5 6.44771 5.44772 5.99999 6 5.99999Z" fill="#0D0D0D"/>
</svg>
